/* XPM */
static char * arbd_xpm[] = {
"30 27 451 2",
"  	c None",
". 	c #BDC2FF",
"+ 	c #C3CBFF",
"@ 	c #B2BDFF",
"# 	c #AEBBFF",
"$ 	c #ACBAFF",
"% 	c #A8BAFF",
"& 	c #A4BAFF",
"* 	c #A1B9FF",
"= 	c #9CB9FF",
"- 	c #99B8FF",
"; 	c #96B7FF",
"> 	c #92B7FF",
", 	c #8FB5FF",
"' 	c #8BB4FF",
") 	c #87B4FF",
"! 	c #84B3FF",
"~ 	c #81B3FF",
"{ 	c #7DB2FF",
"] 	c #78B2FF",
"^ 	c #75B2FF",
"/ 	c #72B0FF",
"( 	c #6FAFFF",
"_ 	c #6BAFFF",
": 	c #67AEFF",
"< 	c #64AEFF",
"[ 	c #61ADFF",
"} 	c #5CACFF",
"| 	c #5AACFF",
"1 	c #4991FD",
"2 	c #4084E9",
"3 	c #C5CBFF",
"4 	c #CDDAFF",
"5 	c #B7C5FF",
"6 	c #A2B2FF",
"7 	c #9FB2FF",
"8 	c #9CB1FF",
"9 	c #99B0FF",
"0 	c #95AFFF",
"a 	c #92AFFF",
"b 	c #8EADFF",
"c 	c #8BADFF",
"d 	c #88ACFF",
"e 	c #84ACFF",
"f 	c #81ACFF",
"g 	c #7DABFF",
"h 	c #7AAAFF",
"i 	c #77AAFF",
"j 	c #73A9FF",
"k 	c #70A9FF",
"l 	c #6CA8FF",
"m 	c #6AA6FF",
"n 	c #67A6FF",
"o 	c #62A5FF",
"p 	c #60A5FF",
"q 	c #5BA4FF",
"r 	c #59A4FF",
"s 	c #55A3FF",
"t 	c #4A96FF",
"u 	c #3164B2",
"v 	c #3068B8",
"w 	c #B3BDFF",
"x 	c #B8C6FF",
"y 	c #C6D8FF",
"z 	c #B0C5FF",
"A 	c #8EAFFF",
"B 	c #88ADFF",
"C 	c #80ABFF",
"D 	c #7EABFF",
"E 	c #77A9FF",
"F 	c #75A9FF",
"G 	c #70A8FF",
"H 	c #6AA8FF",
"I 	c #63A5FF",
"J 	c #5CA5FF",
"K 	c #59A3FF",
"L 	c #56A3FF",
"M 	c #4B95FF",
"N 	c #10213C",
"O 	c #1B3C6C",
"P 	c #AFBBFF",
"Q 	c #A3B2FF",
"R 	c #B0C4FF",
"S 	c #BBD2FF",
"T 	c #A2B9FF",
"U 	c #9EB9FF",
"V 	c #97B7FF",
"W 	c #93B7FF",
"X 	c #8CB5FF",
"Y 	c #88B5FF",
"Z 	c #84B4FF",
"` 	c #82B3FF",
" .	c #7EB2FF",
"..	c #7BB2FF",
"+.	c #77B0FF",
"@.	c #72B2FF",
"#.	c #6FB0FF",
"$.	c #6CAFFF",
"%.	c #68AFFF",
"&.	c #65AEFF",
"*.	c #5FADFF",
"=.	c #5BADFF",
"-.	c #56AAFF",
";.	c #3976CF",
">.	c #020408",
",.	c #1A3C6C",
"'.	c #ACBBFF",
").	c #A1B2FF",
"!.	c #9DB1FF",
"~.	c #8197EE",
"{.	c #7E96EE",
"].	c #7B96EE",
"^.	c #7896EF",
"/.	c #7594F0",
"(.	c #7294F0",
"_.	c #7093EF",
":.	c #6D93F0",
"<.	c #6A92F0",
"[.	c #6792F1",
"}.	c #6491F1",
"|.	c #6190F2",
"1.	c #5E90F3",
"2.	c #5C90F2",
"3.	c #588FF3",
"4.	c #568EF3",
"5.	c #528EF3",
"6.	c #4F8DF4",
"7.	c #4D8DF5",
"8.	c #498DF5",
"9.	c #468BF5",
"0.	c #448BF5",
"a.	c #1C3D6B",
"b.	c #010408",
"c.	c #193C6C",
"d.	c #A9BAFF",
"e.	c #9BB1FF",
"f.	c #7B96EF",
"g.	c #7995EF",
"h.	c #7594EF",
"i.	c #7394F0",
"j.	c #7094F0",
"k.	c #6A93F1",
"l.	c #6492F2",
"m.	c #6291F2",
"n.	c #5E90F2",
"o.	c #5B8FF2",
"p.	c #598FF3",
"q.	c #538EF4",
"r.	c #4F8EF4",
"s.	c #4D8CF4",
"t.	c #4A8CF5",
"u.	c #478CF5",
"v.	c #448BF6",
"w.	c #418AF5",
"x.	c #1C3C6C",
"y.	c #183C6C",
"z.	c #A5BAFF",
"A.	c #9AB0FF",
"B.	c #96B0FF",
"C.	c #7B95EF",
"D.	c #7996EE",
"E.	c #7695F0",
"F.	c #7395F0",
"G.	c #7093F0",
"H.	c #6892F1",
"I.	c #6290F2",
"J.	c #5F91F2",
"K.	c #568FF4",
"L.	c #508DF4",
"M.	c #4D8DF4",
"N.	c #4A8CF4",
"O.	c #458BF5",
"P.	c #428BF6",
"Q.	c #3F8AF6",
"R.	c #173C6C",
"S.	c #97B0FF",
"T.	c #94AFFF",
"U.	c #98B8FF",
"V.	c #7694EF",
"W.	c #6A92F1",
"X.	c #6591F2",
"Y.	c #6291F1",
"Z.	c #5F90F2",
"`.	c #5990F3",
" +	c #538FF3",
".+	c #518EF3",
"++	c #4B8DF4",
"@+	c #488CF4",
"#+	c #428AF5",
"$+	c #3F8BF6",
"%+	c #3C89F6",
"&+	c #153B6D",
"*+	c #9FB9FF",
"=+	c #94B0FF",
"-+	c #90AFFF",
";+	c #94B8FF",
">+	c #7695EF",
",+	c #7494EF",
"'+	c #7194F0",
")+	c #6E94F1",
"!+	c #6B92F0",
"~+	c #6791F0",
"{+	c #5D86DF",
"]+	c #5D8FF2",
"^+	c #598FF2",
"/+	c #548EF3",
"(+	c #518EF4",
"_+	c #4E8DF4",
":+	c #4B8DF5",
"<+	c #488CF5",
"[+	c #408AF6",
"}+	c #3D89F6",
"|+	c #3A89F6",
"1+	c #143B6D",
"2+	c #9DB9FF",
"3+	c #7495F0",
"4+	c #6E93F0",
"5+	c #6C93F1",
"6+	c #6893F1",
"7+	c #243456",
"8+	c #070A12",
"9+	c #5783DC",
"0+	c #5A8FF2",
"a+	c #578FF3",
"b+	c #518DF4",
"c+	c #468CF5",
"d+	c #3789F7",
"e+	c #173C6D",
"f+	c #133B6D",
"g+	c #8EB7FF",
"h+	c #7194EF",
"i+	c #6892F0",
"j+	c #6692F1",
"k+	c #375187",
"l+	c #000000",
"m+	c #060A12",
"n+	c #5282DE",
"o+	c #578EF3",
"p+	c #4C8DF5",
"q+	c #498CF5",
"r+	c #438BF5",
"s+	c #408BF6",
"t+	c #3D8AF6",
"u+	c #3A89F7",
"v+	c #3488F8",
"w+	c #153C6C",
"x+	c #123B6D",
"y+	c #6F94F0",
"z+	c #6C93F0",
"A+	c #6992F1",
"B+	c #6691F1",
"C+	c #6391F1",
"D+	c #6091F2",
"E+	c #345087",
"F+	c #4D81DE",
"G+	c #528DF4",
"H+	c #3B8AF7",
"I+	c #3888F7",
"J+	c #3588F7",
"K+	c #3287F7",
"L+	c #113A6D",
"M+	c #85ACFF",
"N+	c #88B4FF",
"O+	c #6191F2",
"P+	c #5D90F2",
"Q+	c #5A90F3",
"R+	c #315088",
"S+	c #4880DE",
"T+	c #4C8CF4",
"U+	c #4A8DF4",
"V+	c #478CF6",
"W+	c #438BF6",
"X+	c #408BF5",
"Y+	c #3E8AF6",
"Z+	c #3889F6",
"`+	c #3288F8",
" @	c #2F88F8",
".@	c #0F3A6D",
"+@	c #91B5FF",
"@@	c #6791F1",
"#@	c #5B90F2",
"$@	c #558FF3",
"%@	c #2D4F88",
"&@	c #050A12",
"*@	c #427FDF",
"=@	c #418BF6",
"-@	c #3E8AF7",
";@	c #3B89F6",
">@	c #3889F7",
",@	c #3388F7",
"'@	c #2F87F8",
")@	c #2D87F8",
"!@	c #0E3A6D",
"~@	c #82ACFF",
"{@	c #7FABFF",
"]@	c #5E91F2",
"^@	c #5C90F3",
"/@	c #2B4F89",
"(@	c #3E7FDF",
"_@	c #428AF6",
":@	c #07111F",
"<@	c #0C1F39",
"[@	c #3688F7",
"}@	c #3388F8",
"|@	c #3087F7",
"1@	c #2C87F9",
"2@	c #2A86F9",
"3@	c #113B6D",
"4@	c #89B5FF",
"5@	c #7CAAFF",
"6@	c #7EB3FF",
"7@	c #6591F1",
"8@	c #5B90F3",
"9@	c #508EF3",
"0@	c #274E89",
"a@	c #040A12",
"b@	c #397FE0",
"c@	c #3C8AF6",
"d@	c #000101",
"e@	c #06111E",
"f@	c #3087F8",
"g@	c #2A86F8",
"h@	c #2786F9",
"i@	c #103A6D",
"j@	c #0C396D",
"k@	c #86B4FF",
"l@	c #7DAAFF",
"m@	c #78AAFF",
"n@	c #7CB2FF",
"o@	c #568FF3",
"p@	c #508EF4",
"q@	c #244D89",
"r@	c #347DE1",
"s@	c #06111F",
"t@	c #2B86F8",
"u@	c #2886F9",
"v@	c #2585F9",
"w@	c #000408",
"x@	c #0B396E",
"y@	c #83B4FF",
"z@	c #79AAFF",
"A@	c #76A9FF",
"B@	c #5A8FF3",
"C@	c #578EF4",
"D@	c #548FF3",
"E@	c #4E8DF5",
"F@	c #4B8CF5",
"G@	c #458BF6",
"H@	c #214D89",
"I@	c #2786F8",
"J@	c #2586F9",
"K@	c #2285FA",
"L@	c #0A396E",
"M@	c #80B3FF",
"N@	c #72A9FF",
"O@	c #75B0FF",
"P@	c #428BF5",
"Q@	c #3371C9",
"R@	c #2C65B5",
"S@	c #2965B5",
"T@	c #10294B",
"U@	c #05101F",
"V@	c #2284FA",
"W@	c #2084FA",
"X@	c #0D396D",
"Y@	c #09386E",
"Z@	c #6FA8FF",
"`@	c #132A4D",
" #	c #051222",
".#	c #2685F9",
"+#	c #2285F9",
"@#	c #1F85FA",
"##	c #1D83FA",
"$#	c #07386E",
"%#	c #7AB2FF",
"&#	c #558EF4",
"*#	c #528EF4",
"=#	c #4C8CF5",
"-#	c #275DA7",
";#	c #1D4882",
">#	c #1B4882",
",#	c #194883",
"'#	c #184783",
")#	c #174683",
"!#	c #2375D9",
"~#	c #2685FA",
"{#	c #2385F9",
"]#	c #1E83FB",
"^#	c #1B83FA",
"/#	c #76B2FF",
"(#	c #6EA8FF",
"_#	c #69A8FF",
":#	c #548FF4",
"<#	c #4C8DF4",
"[#	c #3B89F7",
"}#	c #3789F6",
"|#	c #3589F7",
"1#	c #3187F7",
"2#	c #2C86F8",
"3#	c #2986F9",
"4#	c #2686F9",
"5#	c #2485F9",
"6#	c #1E84FA",
"7#	c #1882FB",
"8#	c #09396E",
"9#	c #05386F",
"0#	c #67A5FF",
"a#	c #67AFFF",
"b#	c #3287F8",
"c#	c #2785F9",
"d#	c #2385FA",
"e#	c #2184FA",
"f#	c #1A84FA",
"g#	c #1883FB",
"h#	c #1583FB",
"i#	c #08386E",
"j#	c #04386F",
"k#	c #70AFFF",
"l#	c #5C99FF",
"m#	c #4577CE",
"n#	c #233E6B",
"o#	c #223E6B",
"p#	c #203D6B",
"q#	c #1F3D6B",
"r#	c #1E3D6B",
"s#	c #163C6C",
"t#	c #153C6D",
"u#	c #0D396E",
"v#	c #0C3A6D",
"w#	c #08396E",
"x#	c #04284E",
"y#	c #03386F",
"z#	c #6DAFFF",
"A#	c #5D9AFF",
"B#	c #3B67B0",
"C#	c #13223B",
"D#	c #000509",
"E#	c #02386F",
"F#	c #5993FB",
"G#	c #3C67AF",
"H#	c #000409",
"I#	c #013C78",
"J#	c #5087E7",
"K#	c #3C6BB7",
"L#	c #1D3C6B",
"M#	c #163C6D",
"N#	c #07396E",
"O#	c #06386E",
"P#	c #05386E",
"Q#	c #03386E",
"R#	c #0052A5",
". + @ # $ % & * = - ; > , ' ) ! ~ { ] ^ / ( _ : < [ } | 1 2 ",
"3 4 5 6 7 8 9 0 a b c d e f g h i j k l m n o p q r s t u v ",
"w x y z 8 9 0 a A c B e C D h E F G l H n I p J K L M u N O ",
"P Q R S T U - V W , X Y Z `  ...+.@.#.$.%.&.[ *.=.-.;.N >.,.",
"'.).!.T ~.{.].^./.(._.:.<.[.}.|.1.2.3.4.5.6.7.8.9.0.a.>.b.c.",
"d.!.e.U {.f.g.h.i.j.:.k.[.l.m.n.o.p.4.q.r.s.t.u.v.w.x.>.b.y.",
"z.A.B.= C.D.E.F.G.:.k.H.}.I.J.2.p.K.q.L.M.N.u.O.P.Q.,.b.b.R.",
"T S.T.U.D.V.i.j.:.W.H.X.Y.Z.2.`.4. +.+M.++@+O.#+$+%+c.b.b.&+",
"*+=+-+;+>+,+'+)+!+~+{+m.J.]+^+4./+(+_+:+<+O.#+[+}+|+y.b.b.1+",
"2+-+b > 3+'+4+5+6+7+8+9+2.0+a+/+b+_+:+@+c+P.[+}+|+d+e+b.b.f+",
"- b c g+h+4+!+i+j+k+l+m+n+o+/+(+r.p+q+c+r+s+t+u+d+v+w+b.b.x+",
"V c B X y+z+A+B+C+D+E+l+m+F+G+_+p+q+9.r+[+t+H+I+J+K+&+b.b.L+",
"W B M+N+z+A+[.}.O+P+Q+R+l+m+S+T+U+V+W+X+Y+H+Z+J+`+ @f+b.b..@",
"+@M+f Z W.@@C+O+n.#@3.$@%@l+&@*@c+v.=@-@;@>@J+,@'@)@x+b.b.!@",
"X ~@{@~ j+}.|.]@^@3.4.5.L./@l+&@(@_@Q.:@<@[@}@|@1@2@3@b.b.!@",
"4@{@5@6@7@|.J.8@p.K.5.9@s.t.0@l+a@b@c@d@e@`+f@)@g@h@i@b.b.j@",
"k@l@m@n@Y.Z.^@^+o@/+p@M.:+u.O.q@l+a@r@d@s@f@)@t@u@v@.@b.w@x@",
"y@z@A@] D+2.B@C@D@b+E@F@u.G@P.$+H@l+a@l+s@)@t@I@J@K@!@w@w@L@",
"M@A@N@O@P+p.o+/+(+_+:+@+O.P@Q@R@S@T@l+l+U@t@u@J@V@W@X@w@w@Y@",
"n@N@Z@/ p.o+/+(+r.++<+c+P.[+`@l+l+l+l+l+ #u@.#+#@###x@w@w@$#",
"%#G l ( a+&#*#r.=#q+9.W+[+t+-#;#>#,#'#)#!#~#{#W@]#^#L@w@w@$#",
"/#(#_#$.:#*#6.<#q+9.0.=@t+[#}#|#1# @2#3#4#5#W@6#^#7#8#w@w@9#",
"/ H 0#a#*#L.T+U+9.0.=@Y+[#>@J+b#'@2#g@c#d#e#6#f#g#h#i#w@w@j#",
"k#n l#m#n#o#p#q#r#x.O ,.y.y.s#t#1+x+L+i@!@u#v#L@8#w#x#w@w@y#",
"z#A#B#C#>.>.>.>.>.>.b.b.b.b.b.b.b.b.b.b.b.w@w@w@w@w@w@D#w@E#",
"F#G#C#>.>.>.>.>.>.b.b.b.b.b.b.b.b.b.b.b.w@w@w@w@w@w@w@w@H#I#",
"J#K#o#p#q#r#L#x.,.c.y.M#t#1+x+3@i@.@!@v#x@L@w#N#O#P#Q#E#I#R#"};
