/* XPM */
static char * arbg_xpm[] = {
"30 27 445 2",
"  	c None",
". 	c #423D00",
"+ 	c #3A3400",
"@ 	c #4D4200",
"# 	c #514400",
"$ 	c #554400",
"% 	c #584500",
"& 	c #5B4500",
"* 	c #604600",
"= 	c #624600",
"- 	c #664700",
"; 	c #694800",
"> 	c #6D4800",
", 	c #714A00",
"' 	c #734B00",
") 	c #784A00",
"! 	c #7C4B00",
"~ 	c #7E4C00",
"{ 	c #834C00",
"] 	c #854D00",
"^ 	c #894F00",
"/ 	c #8D5000",
"( 	c #905000",
"_ 	c #945000",
": 	c #985100",
"< 	c #9B5200",
"[ 	c #9E5200",
"} 	c #A25300",
"| 	c #A55300",
"1 	c #B66E02",
"2 	c #BF7B16",
"3 	c #3C3400",
"4 	c #302500",
"5 	c #473A00",
"6 	c #5C4D00",
"7 	c #614E00",
"8 	c #634E00",
"9 	c #664F00",
"0 	c #6A5000",
"a 	c #6D5000",
"b 	c #715200",
"c 	c #745200",
"d 	c #775300",
"e 	c #7B5300",
"f 	c #7F5400",
"g 	c #825400",
"h 	c #855500",
"i 	c #885500",
"j 	c #8C5600",
"k 	c #8F5600",
"l 	c #935700",
"m 	c #965700",
"n 	c #985900",
"o 	c #9C5A00",
"p 	c #A05A00",
"q 	c #A35B00",
"r 	c #A65B00",
"s 	c #AA5C00",
"t 	c #B46A00",
"u 	c #CE9B4D",
"v 	c #CF9747",
"w 	c #4C4200",
"x 	c #392700",
"y 	c #4F3A00",
"z 	c #6A4F00",
"A 	c #705000",
"B 	c #775200",
"C 	c #7A5300",
"D 	c #7E5400",
"E 	c #815400",
"F 	c #875600",
"G 	c #8A5600",
"H 	c #8F5700",
"I 	c #9D5900",
"J 	c #9F5B00",
"K 	c #A45B00",
"L 	c #A65C00",
"M 	c #A95C00",
"N 	c #B46900",
"O 	c #F0DDC3",
"P 	c #E4C393",
"Q 	c #4F4200",
"R 	c #5B4D00",
"S 	c #4D3B00",
"T 	c #462D00",
"U 	c #5E4500",
"V 	c #624700",
"W 	c #654700",
"X 	c #684700",
"Y 	c #6C4800",
"Z 	c #704A00",
"` 	c #734A00",
" .	c #774B00",
"..	c #7B4B00",
"+.	c #7D4B00",
"@.	c #824C00",
"#.	c #844D00",
"$.	c #894D00",
"%.	c #8C4F00",
"&.	c #904F00",
"*.	c #935000",
"=.	c #975100",
"-.	c #9A5100",
";.	c #9D5200",
">.	c #A55200",
",.	c #A85500",
"'.	c #C58930",
").	c #FDFBF7",
"!.	c #E5C393",
"~.	c #524400",
"{.	c #5E4E00",
"].	c #624E00",
"^.	c #5D4500",
"/.	c #7E6811",
"(.	c #816911",
"_.	c #846910",
":.	c #866A11",
"<.	c #896A10",
"[.	c #8D6B10",
"}.	c #8F6B0F",
"|.	c #936C0E",
"1.	c #966C0F",
"2.	c #986D0E",
"3.	c #9B6E0E",
"4.	c #9E6E0E",
"5.	c #A16E0D",
"6.	c #A46F0D",
"7.	c #A7700C",
"8.	c #AA700B",
"9.	c #AC710C",
"0.	c #AF710B",
"a.	c #B2720B",
"b.	c #B5730A",
"c.	c #B8730A",
"d.	c #BB730A",
"e.	c #E3C294",
"f.	c #FEFBF7",
"g.	c #E7C393",
"h.	c #564500",
"i.	c #654F00",
"j.	c #614600",
"k.	c #806910",
"l.	c #836A11",
"m.	c #876A10",
"n.	c #8C6B10",
"o.	c #906C0F",
"p.	c #926C0F",
"q.	c #956D0F",
"r.	c #9D6E0D",
"s.	c #A06F0D",
"t.	c #A6700C",
"u.	c #A9700C",
"v.	c #AC710B",
"w.	c #B2730B",
"x.	c #B4730A",
"y.	c #BA740A",
"z.	c #BE7409",
"A.	c #E3C393",
"B.	c #5A4500",
"C.	c #644F00",
"D.	c #694F00",
"E.	c #836910",
"F.	c #866A10",
"G.	c #8C6B0F",
"H.	c #8E6B10",
"I.	c #976E0E",
"J.	c #9A6E0D",
"K.	c #A3700D",
"L.	c #A9710C",
"M.	c #AF720B",
"N.	c #B2720A",
"O.	c #B5720A",
"P.	c #B8740A",
"Q.	c #BB740A",
"R.	c #BD750A",
"S.	c #C07509",
"T.	c #E9C392",
"U.	c #5D4600",
"V.	c #684F00",
"W.	c #6B4F00",
"X.	c #674700",
"Y.	c #896A0F",
"Z.	c #8F6C0F",
"`.	c #956C0F",
" +	c #976D0E",
".+	c #9A6E0E",
"++	c #A06E0D",
"@+	c #A26F0D",
"#+	c #A6700D",
"$+	c #AB710B",
"%+	c #B1720B",
"&+	c #B5730B",
"*+	c #B7730A",
"=+	c #BD740A",
"-+	c #C27509",
";+	c #E6C393",
">+	c #EAC492",
",+	c #6B4800",
"'+	c #886A10",
")+	c #8B6B0F",
"!+	c #8E6C0F",
"~+	c #946D0F",
"{+	c #A36F0D",
"]+	c #A8700C",
"^+	c #AC700C",
"/+	c #AE720B",
"(+	c #B1710B",
"_+	c #945F09",
":+	c #BC750A",
"<+	c #C37509",
"[+	c #C57608",
"}+	c #EBC492",
"|+	c #8B6B10",
"1+	c #8E6C10",
"2+	c #916B0F",
"3+	c #946C0E",
"4+	c #996D0E",
"5+	c #9C6E0E",
"6+	c #A56F0D",
"7+	c #AB700B",
"8+	c #B0710A",
"9+	c #7C4F06",
"0+	c #020100",
"a+	c #774A06",
"b+	c #BF7509",
"c+	c #C57509",
"d+	c #C87608",
"e+	c #E8C393",
"f+	c #ECC492",
"g+	c #664600",
"h+	c #715000",
"i+	c #714800",
"j+	c #906C0E",
"k+	c #936D0F",
"l+	c #9F6E0D",
"m+	c #A26F0C",
"n+	c #A5700D",
"o+	c #AB710C",
"p+	c #AD720C",
"q+	c #050300",
"r+	c #9C5F08",
"s+	c #C27608",
"t+	c #C47609",
"u+	c #C87708",
"v+	c #CB7608",
"w+	c #EDC492",
"x+	c #684800",
"y+	c #735200",
"z+	c #785200",
"A+	c #976D0F",
"B+	c #A46F0C",
"C+	c #AA710B",
"D+	c #AD710C",
"E+	c #7C4F07",
"F+	c #9A5F08",
"G+	c #C27508",
"H+	c #C47608",
"I+	c #CA7708",
"J+	c #CD7708",
"K+	c #EEC492",
"L+	c #926D0F",
"M+	c #966D0E",
"N+	c #996E0E",
"O+	c #9C6E0D",
"P+	c #9F6F0D",
"Q+	c #A4700C",
"R+	c #AA710C",
"S+	c #B0720B",
"T+	c #7B4E06",
"U+	c #BE750A",
"V+	c #C17509",
"W+	c #C47509",
"X+	c #C77708",
"Y+	c #CA7608",
"Z+	c #D07807",
"`+	c #F0C592",
" @	c #6E4800",
".@	c #795300",
"+@	c #7D5400",
"@@	c #9E6E0D",
"#@	c #A16E0C",
"$@	c #AA700C",
"%@	c #7A4F07",
"&@	c #BE740A",
"*@	c #C17508",
"=@	c #C67609",
"-@	c #CD7808",
";@	c #CF7807",
">@	c #D37907",
",@	c #F1C592",
"'@	c #724A00",
")@	c #805400",
"!@	c #7D4C00",
"~@	c #A16F0D",
"{@	c #A06C0B",
"]@	c #140D01",
"^@	c #2B1C03",
"/@	c #7A4E07",
"(@	c #995E08",
"_@	c #C47508",
":@	c #C67608",
"<@	c #CA7607",
"[@	c #D27807",
"}@	c #D57906",
"|@	c #EEC592",
"1@	c #F2C591",
"2@	c #764B00",
"3@	c #835400",
"4@	c #814C00",
"5@	c #9B6D0D",
"6@	c #A26D0B",
"7@	c #000000",
"8@	c #1A1101",
"9@	c #7A4E06",
"0@	c #995F08",
"a@	c #C97608",
"b@	c #CC7708",
"c@	c #D27806",
"d@	c #D87906",
"e@	c #EFC592",
"f@	c #F3C691",
"g@	c #784B00",
"h@	c #835500",
"i@	c #875500",
"j@	c #834D00",
"k@	c #A3700C",
"l@	c #A56D0B",
"m@	c #1B1101",
"n@	c #794D07",
"o@	c #985F08",
"p@	c #BD7409",
"q@	c #C07409",
"r@	c #CE7807",
"s@	c #D57806",
"t@	c #D77906",
"u@	c #DB7906",
"v@	c #FFFBF7",
"w@	c #F4C691",
"x@	c #865500",
"y@	c #895600",
"z@	c #874D00",
"A@	c #A66D0B",
"B@	c #090600",
"C@	c #C27609",
"D@	c #C97708",
"E@	c #D47906",
"F@	c #DA7A06",
"G@	c #DD7B05",
"H@	c #F5C691",
"I@	c #7F4C00",
"J@	c #8D5600",
"K@	c #8A4F00",
"L@	c #A96E0A",
"M@	c #663F05",
"N@	c #8A5506",
"O@	c #8C5506",
"P@	c #BB7008",
"Q@	c #CB7707",
"R@	c #CE7707",
"S@	c #D17807",
"T@	c #D47907",
"U@	c #D97906",
"V@	c #DC7A05",
"W@	c #DF7B05",
"X@	c #F3C692",
"Y@	c #F6C691",
"Z@	c #824D00",
"`@	c #A5700C",
" #	c #A8710C",
".#	c #AD6F0A",
"+#	c #A76407",
"@#	c #CB7708",
"##	c #D97A06",
"$#	c #DC7A06",
"%#	c #E27B04",
"&#	c #F4C692",
"*#	c #F8C791",
"=#	c #AE710B",
"-#	c #B3730B",
";#	c #794C07",
">#	c #613C04",
",#	c #633D05",
"'#	c #653D04",
")#	c #663D04",
"!#	c #683D04",
"~#	c #BA6F07",
"{#	c #D37807",
"]#	c #D67907",
"^#	c #E27B05",
"/#	c #E57C04",
"(#	c #915700",
"_#	c #965900",
":#	c #AD710B",
"<#	c #B0710B",
"[#	c #B3720A",
"}#	c #B6730A",
"|#	c #B97309",
"1#	c #BC740A",
"2#	c #BF740A",
"3#	c #D67906",
"4#	c #E77C04",
"5#	c #FAC791",
"6#	c #955900",
"7#	c #B3720B",
"8#	c #BC7409",
"9#	c #C77608",
"0#	c #CF7707",
"a#	c #D27907",
"b#	c #DF7B06",
"c#	c #E17B05",
"d#	c #E47B04",
"e#	c #EA7C04",
"f#	c #F7C791",
"g#	c #FBC790",
"h#	c #8F5000",
"i#	c #A36600",
"j#	c #B98831",
"k#	c #DCC194",
"l#	c #DDC294",
"m#	c #DFC294",
"n#	c #E0C294",
"o#	c #E1C293",
"p#	c #E3C394",
"q#	c #F2C592",
"r#	c #F7C691",
"s#	c #FBD7B1",
"t#	c #FCC790",
"u#	c #C4984F",
"v#	c #ECDDC4",
"w#	c #FFFAF6",
"x#	c #FDC790",
"y#	c #A66B03",
"z#	c #C39850",
"A#	c #FFFBF6",
"B#	c #FEC387",
"C#	c #B07817",
"D#	c #C29448",
"E#	c #DDC194",
"F#	c #DEC294",
"G#	c #E1C294",
"H#	c #F8C691",
"I#	c #F9C791",
"J#	c #FCC791",
"K#	c #FEC488",
"L#	c #FFAD5A",
". + @ # $ % & * = - ; > , ' ) ! ~ { ] ^ / ( _ : < [ } | 1 2 ",
"3 4 5 6 7 8 9 0 a b c d e f g h i j k l m n o p q r s t u v ",
"w 5 x y 8 9 z a A c B C D E h F G H l m n I J K L M N u O P ",
"Q R S T U V W X Y Z `  ...+.@.#.$.%.&.*.=.-.;.} >.,.'.O ).!.",
"~.{.].^./.(._.:.<.[.}.|.1.2.3.4.5.6.7.8.9.0.a.b.c.d.e.).f.g.",
"h.].i.j.k.l.m.<.n.o.p.q.2.3.r.s.6.t.u.v.0.w.x.c.y.z.A.f.f.g.",
"B.C.D.W E.F.<.G.H.p.q.I.J.r.s.K.t.L.9.M.N.O.P.Q.R.S.!.f.f.T.",
"U.V.W.X.F.Y.G.Z.p.`. +.+r.++@+#+L.$+0.%+&+*+y.=+S.-+;+f.f.>+",
"* z a ,+'+)+!+p.~+ +.+r.s.{+t.]+^+/+(+_+*+y.:+S.<+[+g.f.f.}+",
"V a b > |+1+2+3+ +4+5+s.@+6+u.7+/+8+9+0+a+:+b+-+c+d+e+f.f.f+",
"g+h+c i+!+j+k+ +4+5+l+m+n+]+o+p+%+9+0+q+r+b+s+t+u+v+>+f.f.w+",
"x+y+z+` o.|.A+4+5+4.@+B+]+C+D+%+E+0+q+F+b+G+H+d+I+J+>+f.f.K+",
"Y d C  .L+M+N+O+P+m+Q+7.R+D+S+T+0+q+F+U+V+W+X+Y+J+Z+f+f.f.`+",
" @.@+@..q.4+5+@@#@B+7.$@9.S+%@0+q+F+&@*@t+=@I+-@;@>@w+f.f.,@",
"'@D )@!@2.3.4.~@{@]@^@9.M./@0+q+(@z.S._@:@<@-@Z+[@}@|@f.f.1@",
"2@)@3@4@5@r.~@6.6@7@8@0.9@0+q+0@z.S.W+=@a@b@;@c@}@d@e@f.f.f@",
"g@h@i@j@r.s.k@t.l@7@m@n@0+q+o@p@q@W+:@a@b@r@[@s@t@u@,@f.v@w@",
"!@x@y@z@s.@+t.L.A@7@B@0+q+o@p@S.C@:@D@b@;@[@E@d@F@G@,@v@v@H@",
"I@y@J@K@{+t.L.o+L@7@7@7@M@N@O@P@[+u+Q@R@S@T@t@U@V@W@X@v@v@Y@",
"Z@j k / `@ #o+/+.#7@7@7@7@7@7@+#d+@#R@S@E@t@##$#W@%#&#v@v@*#",
"] k l &. #o+=#%+-#;#>#,#'#)#!#~#v+R@S@{#]#U@V@W@^#/#H@v@v@*#",
"$.(#_#*.R+:#<#[#}#|#1#2#G+W+d+Y+-@Z+>@3###$#W@%#/#4#Y@v@v@5#",
"%.6#n =.D+M.7#b.c.8#&@G+t+9#I+J+0#a#]#U@$#b#c#d#4#e#f#v@v@g#",
"h#n i#j#k#l#m#n#o#p#P !.g.e+T.>+}+w+|@e@,@q#X@H@H@r#s#v@v@t#",
"*.i#u#v#).).).).).).).f.f.f.f.f.f.f.f.f.f.v@v@v@v@v@v@w#v@x#",
"y#z#v#).).).).).).f.f.f.f.f.f.f.f.f.f.f.v@v@v@v@v@v@v@v@A#B#",
"C#D#E#F#n#G#e.A.!.;+g.T.>+}+w+K+e@`+,@X@w@H@r#H#I#5#J#x#K#L#"};
