/* XPM */
static char * arbg_xpm[] = {
"30 27 446 2",
"  	c None",
". 	c #BDC2FF",
"+ 	c #C5CBFF",
"@ 	c #B2BDFF",
"# 	c #AEBBFF",
"$ 	c #AABBFF",
"% 	c #A7BAFF",
"& 	c #A4BAFF",
"* 	c #9FB9FF",
"= 	c #9DB9FF",
"- 	c #99B8FF",
"; 	c #96B7FF",
"> 	c #92B7FF",
", 	c #8EB5FF",
"' 	c #8CB4FF",
") 	c #87B5FF",
"! 	c #83B4FF",
"~ 	c #81B3FF",
"{ 	c #7CB3FF",
"] 	c #7AB2FF",
"^ 	c #76B0FF",
"/ 	c #72AFFF",
"( 	c #6FAFFF",
"_ 	c #6BAFFF",
": 	c #67AEFF",
"< 	c #64ADFF",
"[ 	c #61ADFF",
"} 	c #5DACFF",
"| 	c #5AACFF",
"1 	c #4991FD",
"2 	c #4084E9",
"3 	c #C3CBFF",
"4 	c #CFDAFF",
"5 	c #B8C5FF",
"6 	c #A3B2FF",
"7 	c #9EB1FF",
"8 	c #9CB1FF",
"9 	c #99B0FF",
"0 	c #95AFFF",
"a 	c #92AFFF",
"b 	c #8EADFF",
"c 	c #8BADFF",
"d 	c #88ACFF",
"e 	c #84ACFF",
"f 	c #80ABFF",
"g 	c #7DABFF",
"h 	c #7AAAFF",
"i 	c #77AAFF",
"j 	c #73A9FF",
"k 	c #70A9FF",
"l 	c #6CA8FF",
"m 	c #69A8FF",
"n 	c #67A6FF",
"o 	c #63A5FF",
"p 	c #5FA5FF",
"q 	c #5CA4FF",
"r 	c #59A4FF",
"s 	c #55A3FF",
"t 	c #4B95FF",
"u 	c #3164B2",
"v 	c #3068B8",
"w 	c #B3BDFF",
"x 	c #C6D8FF",
"y 	c #B0C5FF",
"z 	c #95B0FF",
"A 	c #8FAFFF",
"B 	c #88ADFF",
"C 	c #85ACFF",
"D 	c #81ABFF",
"E 	c #7EABFF",
"F 	c #78A9FF",
"G 	c #75A9FF",
"H 	c #70A8FF",
"I 	c #62A6FF",
"J 	c #60A4FF",
"K 	c #5BA4FF",
"L 	c #59A3FF",
"M 	c #56A3FF",
"N 	c #4B96FF",
"O 	c #0F223C",
"P 	c #1B3C6C",
"Q 	c #B0BDFF",
"R 	c #A4B2FF",
"S 	c #B2C4FF",
"T 	c #B9D2FF",
"U 	c #A1BAFF",
"V 	c #9DB8FF",
"W 	c #9AB8FF",
"X 	c #97B8FF",
"Y 	c #93B7FF",
"Z 	c #8FB5FF",
"` 	c #8CB5FF",
" .	c #88B4FF",
"..	c #84B4FF",
"+.	c #82B4FF",
"@.	c #7DB3FF",
"#.	c #7BB2FF",
"$.	c #76B2FF",
"%.	c #73B0FF",
"&.	c #6FB0FF",
"*.	c #6CAFFF",
"=.	c #68AEFF",
"-.	c #65AEFF",
";.	c #62ADFF",
">.	c #5AADFF",
",.	c #57AAFF",
"'.	c #3A76CF",
").	c #020408",
"!.	c #1A3C6C",
"~.	c #ADBBFF",
"{.	c #A1B1FF",
"].	c #9DB1FF",
"^.	c #A2BAFF",
"/.	c #8197EE",
"(.	c #7E96EE",
"_.	c #7B96EF",
":.	c #7995EE",
"<.	c #7695EF",
"[.	c #7294EF",
"}.	c #7094F0",
"|.	c #6C93F1",
"1.	c #6993F0",
"2.	c #6792F1",
"3.	c #6491F1",
"4.	c #6191F1",
"5.	c #5E91F2",
"6.	c #5B90F2",
"7.	c #588FF3",
"8.	c #558FF4",
"9.	c #538EF3",
"0.	c #508EF4",
"a.	c #4D8DF4",
"b.	c #4A8CF5",
"c.	c #478CF5",
"d.	c #448CF5",
"e.	c #1C3D6B",
"f.	c #010408",
"g.	c #183C6C",
"h.	c #A9BAFF",
"i.	c #9AB0FF",
"j.	c #9EB9FF",
"k.	c #7F96EF",
"l.	c #7C95EE",
"m.	c #7895EF",
"n.	c #7394EF",
"o.	c #6F93F0",
"p.	c #6D93F0",
"q.	c #6A92F0",
"r.	c #6291F2",
"s.	c #5F90F2",
"t.	c #598FF3",
"u.	c #568FF3",
"v.	c #538EF4",
"w.	c #4D8CF4",
"x.	c #4B8CF5",
"y.	c #458BF5",
"z.	c #418BF6",
"A.	c #1C3C6C",
"B.	c #A5BAFF",
"C.	c #9BB0FF",
"D.	c #96B0FF",
"E.	c #7C96EF",
"F.	c #7995EF",
"G.	c #7394F0",
"H.	c #7194EF",
"I.	c #6891F1",
"J.	c #6591F2",
"K.	c #5C8FF2",
"L.	c #568EF3",
"M.	c #508DF4",
"N.	c #4D8DF5",
"O.	c #4A8DF5",
"P.	c #478BF5",
"Q.	c #448BF5",
"R.	c #428AF5",
"S.	c #3F8AF6",
"T.	c #163C6D",
"U.	c #A2B9FF",
"V.	c #97B0FF",
"W.	c #94B0FF",
"X.	c #98B8FF",
"Y.	c #7695F0",
"Z.	c #7093F0",
"`.	c #6A93F0",
" +	c #6892F1",
".+	c #6591F1",
"++	c #5F91F2",
"@+	c #5D90F2",
"#+	c #598FF2",
"$+	c #548EF4",
"%+	c #4E8DF4",
"&+	c #4A8CF4",
"*+	c #488CF5",
"=+	c #428BF5",
"-+	c #3D8AF6",
";+	c #193C6C",
">+	c #153B6D",
",+	c #94B7FF",
"'+	c #7795EF",
")+	c #7494F0",
"!+	c #7193F0",
"~+	c #6B92F0",
"{+	c #5C90F2",
"]+	c #578FF3",
"^+	c #538FF3",
"/+	c #518DF4",
"(+	c #4E8EF4",
"_+	c #3E73C9",
":+	c #438AF5",
"<+	c #3C8AF6",
"[+	c #3A89F7",
"}+	c #143B6D",
"|+	c #7494EF",
"1+	c #7193EF",
"2+	c #6E94F0",
"3+	c #6B93F1",
"4+	c #6692F1",
"5+	c #6391F1",
"6+	c #5A90F2",
"7+	c #548FF4",
"8+	c #4F8EF5",
"9+	c #3461AA",
"0+	c #010203",
"a+	c #2D5A9E",
"b+	c #408AF6",
"c+	c #3A8AF6",
"d+	c #3789F7",
"e+	c #173C6C",
"f+	c #133B6D",
"g+	c #99B9FF",
"h+	c #8EAFFF",
"i+	c #8EB7FF",
"j+	c #6F93F1",
"k+	c #6C92F0",
"l+	c #6091F2",
"m+	c #5D90F3",
"n+	c #5A8FF2",
"o+	c #548EF3",
"p+	c #528DF3",
"q+	c #000102",
"r+	c #020407",
"s+	c #3673CA",
"t+	c #3D89F7",
"u+	c #3B89F6",
"v+	c #3788F7",
"w+	c #3489F7",
"x+	c #123B6D",
"y+	c #97B7FF",
"z+	c #8CADFF",
"A+	c #87ADFF",
"B+	c #6892F0",
"C+	c #5B90F3",
"D+	c #558EF4",
"E+	c #528EF3",
"F+	c #3461A9",
"G+	c #3772C9",
"H+	c #3D8AF7",
"I+	c #3B89F7",
"J+	c #3588F7",
"K+	c #3288F7",
"L+	c #113B6D",
"M+	c #6D92F0",
"N+	c #6992F1",
"O+	c #6691F1",
"P+	c #6391F2",
"Q+	c #6090F2",
"R+	c #5B8FF3",
"S+	c #558EF3",
"T+	c #4F8DF4",
"U+	c #418AF5",
"V+	c #3E8AF6",
"W+	c #3B8AF6",
"X+	c #3888F7",
"Y+	c #3589F7",
"Z+	c #2F87F8",
"`+	c #0F3A6D",
" @	c #91B7FF",
".@	c #86ACFF",
"+@	c #82ABFF",
"@@	c #6191F2",
"#@	c #5E91F3",
"$@	c #558FF3",
"%@	c #3560A8",
"&@	c #3872C9",
"*@	c #418BF5",
"=@	c #3E8AF7",
"-@	c #3989F6",
";@	c #3287F7",
">@	c #3087F8",
",@	c #2C86F8",
"'@	c #0E3A6D",
")@	c #8DB5FF",
"!@	c #7FABFF",
"~@	c #82B3FF",
"{@	c #5E90F2",
"]@	c #598DEE",
"^@	c #0A111D",
"/@	c #16253E",
"(@	c #3460A7",
"_@	c #3772C8",
":@	c #3B8AF7",
"<@	c #3989F7",
"[@	c #3589F8",
"}@	c #2D87F8",
"|@	c #2A86F9",
"1@	c #113A6D",
"2@	c #0D3A6E",
"3@	c #89B4FF",
"4@	c #7CABFF",
"5@	c #7EB3FF",
"6@	c #6492F2",
"7@	c #568BED",
"8@	c #000000",
"9@	c #0D1626",
"0@	c #3460A8",
"a@	c #3771C8",
"b@	c #3689F7",
"c@	c #3388F7",
"d@	c #2D87F9",
"e@	c #2786F9",
"f@	c #103A6D",
"g@	c #0C396E",
"h@	c #87B4FF",
"i@	c #7CAAFF",
"j@	c #78AAFF",
"k@	c #7CB2FF",
"l@	c #5C8FF3",
"m@	c #538BED",
"n@	c #0C1626",
"o@	c #3460A6",
"p@	c #3871C8",
"q@	c #428BF6",
"r@	c #3F8BF6",
"s@	c #3187F8",
"t@	c #2A87F9",
"u@	c #2886F9",
"v@	c #2486F9",
"w@	c #000408",
"x@	c #0B396E",
"y@	c #79AAFF",
"z@	c #76A9FF",
"A@	c #78B2FF",
"B@	c #528BED",
"C@	c #04070D",
"D@	c #3D89F6",
"E@	c #3688F7",
"F@	c #2B86F9",
"G@	c #2585F9",
"H@	c #2284FA",
"I@	c #0A396E",
"J@	c #80B3FF",
"K@	c #72A9FF",
"L@	c #75B0FF",
"M@	c #4F8AEE",
"N@	c #254C86",
"O@	c #3065B4",
"P@	c #2E65B4",
"Q@	c #3984EC",
"R@	c #3488F8",
"S@	c #3188F8",
"T@	c #2E87F8",
"U@	c #2B86F8",
"V@	c #2686F9",
"W@	c #2385FA",
"X@	c #2084FA",
"Y@	c #0C396D",
"Z@	c #09396E",
"`@	c #7DB2FF",
" #	c #5A8FF3",
".#	c #578EF3",
"+#	c #4C8AEF",
"@#	c #3174D1",
"##	c #3488F7",
"$#	c #2685F9",
"%#	c #2385F9",
"&#	c #1D84FB",
"*#	c #0B396D",
"=#	c #07386E",
"-#	c #518EF4",
";#	c #4C8CF4",
">#	c #305DA2",
",#	c #254A82",
"'#	c #234981",
")#	c #214982",
"!#	c #204982",
"~#	c #1E4982",
"{#	c #337EE6",
"]#	c #2C87F8",
"^#	c #2986F8",
"/#	c #1D84FA",
"(#	c #1A83FB",
"_#	c #6EA8FF",
":#	c #69A6FF",
"<#	c #528EF4",
"[#	c #4F8EF4",
"}#	c #4C8DF5",
"|#	c #498CF5",
"1#	c #468CF6",
"2#	c #438BF5",
"3#	c #408BF5",
"4#	c #2986F9",
"5#	c #1883FB",
"6#	c #05386E",
"7#	c #6AA6FF",
"8#	c #4C8DF4",
"9#	c #438BF6",
"0#	c #3889F7",
"a#	c #3088F8",
"b#	c #2D86F8",
"c#	c #2084F9",
"d#	c #1E84FA",
"e#	c #1B84FB",
"f#	c #1583FB",
"g#	c #08386E",
"h#	c #04386F",
"i#	c #70AFFF",
"j#	c #5C99FF",
"k#	c #4677CE",
"l#	c #233E6B",
"m#	c #223D6B",
"n#	c #203D6B",
"o#	c #1F3D6B",
"p#	c #1E3D6C",
"q#	c #1C3C6B",
"r#	c #0D3A6D",
"s#	c #08396E",
"t#	c #04284E",
"u#	c #03386F",
"v#	c #3B67B0",
"w#	c #13223B",
"x#	c #000509",
"y#	c #02386F",
"z#	c #5994FC",
"A#	c #3C67AF",
"B#	c #000409",
"C#	c #013C78",
"D#	c #4F87E8",
"E#	c #3D6BB7",
"F#	c #223E6B",
"G#	c #213D6B",
"H#	c #1E3D6B",
"I#	c #07396E",
"J#	c #06386E",
"K#	c #03386E",
"L#	c #013B77",
"M#	c #0052A5",
". + @ # $ % & * = - ; > , ' ) ! ~ { ] ^ / ( _ : < [ } | 1 2 ",
"3 4 5 6 7 8 9 0 a b c d e f g h i j k l m n o p q r s t u v ",
"w 5 x y 8 9 z a A c B C D E h F G H l m n I J K L M N u O P ",
"Q R S T U V W X Y Z `  ...+.@.#.$.%.&.*.=.-.;.} >.,.'.O ).!.",
"~.{.].^./.(._.:.<.[.}.|.1.2.3.4.5.6.7.8.9.0.a.b.c.d.e.).f.g.",
"h.].i.j.k.l.m.<.n.o.p.q.2.3.r.s.6.t.u.v.0.w.x.c.y.z.A.f.f.g.",
"B.C.D.W E.F.<.G.H.p.q.I.J.r.s.K.t.L.9.M.N.O.P.Q.R.S.!.f.f.T.",
"U.V.W.X.F.Y.G.Z.p.`. +.+r.++@+#+L.$+0.%+&+*+y.=+S.-+;+f.f.>+",
"* z a ,+'+)+!+p.~+ +.+r.s.{+t.]+^+/+(+_+*+y.:+S.<+[+g.f.f.}+",
"V a b > |+1+2+3+ +4+5+s.@+6+u.7+/+8+9+0+a+:+b+-+c+d+e+f.f.f+",
"g+h+c i+!+j+k+ +4+5+l+m+n+]+o+p+%+9+q+r+s+b+t+u+v+w+>+f.f.x+",
"y+z+A+` o.|.B+4+5+4.@+C+]+D+E+%+F+q+r+G+b+H+I+d+J+K+>+f.f.L+",
"Y d C  .M+N+O+P+Q+m+R+7.S+E+T+F+q+r+G+U+V+W+X+Y+K+Z+f+f.f.`+",
" @.@+@..q.4+5+@@#@C+7.$@9.T+%@q+r+&@*@=@u+-@J+;@>@,@x+f.f.'@",
")@D !@~@2.3.4.{@]@^@/@9.M.(@q+r+_@z.S.:@<@[@;@Z+}@|@1@f.f.2@",
"3@!@4@5@6@r.{@6.7@8@9@0.0@q+r+a@z.S.W+-@b@c@>@d@|@e@f@f.f.g@",
"h@i@j@k@r.s.l@t.m@8@n@o@q+r+p@q@r@W+<@b@c@s@}@t@u@v@'@f.w@x@",
"~@y@z@A@s.@+t.L.B@8@C@q+r+p@q@S.D@<@E@c@>@}@F@e@G@H@'@w@w@I@",
"J@z@K@L@{+t.L.o+M@8@8@8@N@O@P@Q@[+v+R@S@T@U@u@V@W@X@Y@w@w@Z@",
"`@j k /  #.#o+/++#8@8@8@8@8@8@@#d+##S@T@F@u@$#%#X@&#*#w@w@=#",
"] k l &..#o+-#%+;#>#,#'#)#!#~#{#w+S@T@]#^#V@W@X@/#(#I@w@w@=#",
"$._#:#*.S+<#[#}#|#1#2#3#H+W+d+Y+;@Z+,@4#$#%#X@&#(#5#Z@w@w@6#",
"%.7#n =.E+M.8#b.c.9#*@H+u+0#J+K+a#b#^#V@%#c#d#e#5#f#g#w@w@h#",
"i#n j#k#l#m#n#o#p#q#P !.g.e+T.>+}+x+1@f@'@r#Y@I@I@s#t#w@w@u#",
"*.j#v#w#).).).).).).).f.f.f.f.f.f.f.f.f.f.w@w@w@w@w@w@x#w@y#",
"z#A#w#).).).).).).f.f.f.f.f.f.f.f.f.f.f.w@w@w@w@w@w@w@w@B#C#",
"D#E#F#G#o#H#e.A.!.;+g.T.>+}+x+L+f@`+'@Y@x@I@s#I#J#6#K#y#L#M#"};
