/* XPM */
static char * arhd_xpm[] = {
"30 27 432 2",
"  	c None",
". 	c #BDC2FF",
"+ 	c #C5CDFF",
"@ 	c #B2BDFF",
"# 	c #AEBBFF",
"$ 	c #AABBFF",
"% 	c #A7BBFF",
"& 	c #A3BAFF",
"* 	c #A1B9FF",
"= 	c #9DB8FF",
"- 	c #99B8FF",
"; 	c #96B7FF",
"> 	c #92B7FF",
", 	c #8EB7FF",
"' 	c #8CB4FF",
") 	c #87B5FF",
"! 	c #84B4FF",
"~ 	c #80B3FF",
"{ 	c #7DB3FF",
"] 	c #7AB2FF",
"^ 	c #75B2FF",
"/ 	c #72B0FF",
"( 	c #6FAFFF",
"_ 	c #6BAFFF",
": 	c #67AEFF",
"< 	c #64AEFF",
"[ 	c #61ADFF",
"} 	c #5CADFF",
"| 	c #5AACFF",
"1 	c #4991FD",
"2 	c #3F83EA",
"3 	c #C3CBFF",
"4 	c #CFDAFF",
"5 	c #B8C6FF",
"6 	c #A3B2FF",
"7 	c #9EB1FF",
"8 	c #9CB1FF",
"9 	c #99B1FF",
"0 	c #95B0FF",
"a 	c #93B0FF",
"b 	c #8FADFF",
"c 	c #8CADFF",
"d 	c #87ADFF",
"e 	c #85ACFF",
"f 	c #81ABFF",
"g 	c #7EABFF",
"h 	c #7AAAFF",
"i 	c #77AAFF",
"j 	c #73A9FF",
"k 	c #70A8FF",
"l 	c #6CA6FF",
"m 	c #69A6FF",
"n 	c #66A6FF",
"o 	c #62A5FF",
"p 	c #5FA4FF",
"q 	c #5CA4FF",
"r 	c #59A4FF",
"s 	c #54A3FF",
"t 	c #4B96FF",
"u 	c #3164B2",
"v 	c #3068B8",
"w 	c #B3BDFF",
"x 	c #B8C5FF",
"y 	c #C6D7FF",
"z 	c #B0C4FF",
"A 	c #9DB0FF",
"B 	c #9AB0FF",
"C 	c #92AFFF",
"D 	c #8EAFFF",
"E 	c #8BADFF",
"F 	c #87ACFF",
"G 	c #84ACFF",
"H 	c #7EAAFF",
"I 	c #77A9FF",
"J 	c #70A9FF",
"K 	c #6CA8FF",
"L 	c #69A8FF",
"M 	c #67A6FF",
"N 	c #5CA5FF",
"O 	c #56A3FF",
"P 	c #3164B1",
"Q 	c #10223C",
"R 	c #1B3C6C",
"S 	c #AFBBFF",
"T 	c #BBD2FF",
"U 	c #9EB9FF",
"V 	c #9AB8FF",
"W 	c #97B8FF",
"X 	c #93B7FF",
"Y 	c #8FB7FF",
"Z 	c #8CB5FF",
"` 	c #88B4FF",
" .	c #82B3FF",
"..	c #7EB3FF",
"+.	c #7BB2FF",
"@.	c #76B2FF",
"#.	c #73B0FF",
"$.	c #70B0FF",
"%.	c #6CAFFF",
"&.	c #68AEFF",
"*.	c #65AEFF",
"=.	c #5DADFF",
"-.	c #57AAFF",
";.	c #3A76D0",
">.	c #10213C",
",.	c #020408",
"'.	c #1A3C6C",
").	c #ADBBFF",
"!.	c #9FB1FF",
"~.	c #9DB1FF",
"{.	c #A2BAFF",
"].	c #8196EE",
"^.	c #7E96EF",
"/.	c #7B95EF",
"(.	c #7895EE",
"_.	c #7694EF",
":.	c #7394EF",
"<.	c #6F94F0",
"[.	c #6C93F0",
"}.	c #6A93F1",
"|.	c #6691F1",
"1.	c #6491F1",
"2.	c #6191F2",
"3.	c #5E90F2",
"4.	c #5B8FF3",
"5.	c #588FF3",
"6.	c #558FF3",
"7.	c #528EF4",
"8.	c #4F8DF4",
"9.	c #4C8DF4",
"0.	c #4A8CF5",
"a.	c #478BF5",
"b.	c #448BF5",
"c.	c #1C3D6B",
"d.	c #010408",
"e.	c #193C6C",
"f.	c #A9BBFF",
"g.	c #7F96EE",
"h.	c #7B96EE",
"i.	c #7995EF",
"j.	c #7294EF",
"k.	c #7093F0",
"l.	c #6D93F0",
"m.	c #6A92F1",
"n.	c #6792F1",
"o.	c #5B90F2",
"p.	c #598FF3",
"q.	c #538EF4",
"r.	c #508EF4",
"s.	c #4D8DF4",
"t.	c #4A8DF5",
"u.	c #488BF5",
"v.	c #458BF6",
"w.	c #418AF5",
"x.	c #1C3C6C",
"y.	c #183C6C",
"z.	c #A7BAFF",
"A.	c #97B0FF",
"B.	c #7695EF",
"C.	c #6591F1",
"D.	c #6291F2",
"E.	c #5B90F3",
"F.	c #568FF3",
"G.	c #508DF4",
"H.	c #4D8CF4",
"I.	c #4A8DF4",
"J.	c #488CF5",
"K.	c #458CF5",
"L.	c #418BF5",
"M.	c #3F8AF6",
"N.	c #163C6D",
"O.	c #A3B9FF",
"P.	c #94AFFF",
"Q.	c #98B8FF",
"R.	c #7995EE",
"S.	c #7695F0",
"T.	c #7194F0",
"U.	c #6E93F0",
"V.	c #6B93F0",
"W.	c #6892F1",
"X.	c #6291F1",
"Y.	c #5F91F2",
"Z.	c #5C90F2",
"`.	c #4B8DF5",
" +	c #458BF5",
".+	c #428BF5",
"++	c #3C8AF7",
"@+	c #153C6D",
"#+	c #9FB9FF",
"$+	c #90AFFF",
"%+	c #96B8FF",
"&+	c #7193EF",
"*+	c #6E94F0",
"=+	c #456FBC",
"-+	c #395FA2",
";+	c #385FA3",
">+	c #355FA2",
",+	c #345EA4",
"'+	c #325EA3",
")+	c #4484E8",
"!+	c #468CF5",
"~+	c #3D89F6",
"{+	c #3A89F6",
"]+	c #143B6D",
"^+	c #9CB9FF",
"/+	c #8DADFF",
"(+	c #91B7FF",
"_+	c #7494EF",
":+	c #7194EF",
"<+	c #6B92F0",
"[+	c #6993F1",
"}+	c #6091F2",
"|+	c #5D8FF3",
"1+	c #5A8FF2",
"2+	c #1B2C4C",
"3+	c #000000",
"4+	c #0D1A2F",
"5+	c #408BF6",
"6+	c #3989F7",
"7+	c #3788F7",
"8+	c #173C6C",
"9+	c #133B6D",
"0+	c #8EADFF",
"a+	c #7294F0",
"b+	c #6B92F1",
"c+	c #6391F2",
"d+	c #5D90F2",
"e+	c #5A90F2",
"f+	c #578FF3",
"g+	c #3D68B2",
"h+	c #315694",
"i+	c #305594",
"j+	c #162A49",
"k+	c #08111E",
"l+	c #408AF6",
"m+	c #3D8AF6",
"n+	c #3A89F7",
"o+	c #3789F7",
"p+	c #3488F7",
"q+	c #123B6D",
"r+	c #97B7FF",
"s+	c #6F93F0",
"t+	c #6C93F1",
"u+	c #6692F1",
"v+	c #6090F2",
"w+	c #5A8FF3",
"x+	c #558EF3",
"y+	c #335FA6",
"z+	c #000102",
"A+	c #020407",
"B+	c #3E8AF6",
"C+	c #3B89F7",
"D+	c #3889F7",
"E+	c #3588F8",
"F+	c #3288F8",
"G+	c #153B6D",
"H+	c #113B6D",
"I+	c #6992F0",
"J+	c #6491F2",
"K+	c #6190F2",
"L+	c #528EF3",
"M+	c #4F8EF4",
"N+	c #3360A6",
"O+	c #3873CA",
"P+	c #000101",
"Q+	c #07111E",
"R+	c #3888F7",
"S+	c #3588F7",
"T+	c #3287F8",
"U+	c #2F88F8",
"V+	c #103A6D",
"W+	c #8FB5FF",
"X+	c #82ABFF",
"Y+	c #86B4FF",
"Z+	c #6992F1",
"`+	c #5E90F3",
" @	c #3872CA",
".@	c #418AF6",
"+@	c #3087F8",
"@@	c #2D87F9",
"#@	c #0E3A6D",
"$@	c #8DB5FF",
"%@	c #82ACFF",
"&@	c #82B4FF",
"*@	c #6791F1",
"=@	c #6492F1",
"-@	c #538EF3",
";@	c #3460A6",
">@	c #428AF6",
",@	c #3388F8",
"'@	c #3088F7",
")@	c #2D87F8",
"!@	c #2987F9",
"~@	c #113A6D",
"{@	c #0D3A6D",
"]@	c #89B4FF",
"^@	c #7FABFF",
"/@	c #7CAAFF",
"(@	c #3460A7",
"_@	c #3873C9",
":@	c #3C8AF6",
"<@	c #3887F4",
"[@	c #3486F4",
"}@	c #3088F8",
"|@	c #2E87F8",
"1@	c #2A86F8",
"2@	c #2785F9",
"3@	c #0C396E",
"4@	c #87B4FF",
"5@	c #7CABFF",
"6@	c #79AAFF",
"7@	c #7BB3FF",
"8@	c #5F90F2",
"9@	c #5C8FF2",
"0@	c #508DF3",
"a@	c #3772C8",
"b@	c #3F8AF7",
"c@	c #3C89F6",
"d@	c #398AF7",
"e@	c #3689F7",
"f@	c #2785F8",
"g@	c #2586F9",
"h@	c #0F3A6D",
"i@	c #000408",
"j@	c #0B396E",
"k@	c #83B3FF",
"l@	c #78AAFF",
"m@	c #76AAFF",
"n@	c #78B2FF",
"o@	c #3560A6",
"p@	c #3872C8",
"q@	c #428BF6",
"r@	c #3F8BF6",
"s@	c #3187F8",
"t@	c #2B86F8",
"u@	c #2786F8",
"v@	c #2585FA",
"w@	c #2285FA",
"x@	c #0A396E",
"y@	c #76A9FF",
"z@	c #72A9FF",
"A@	c #5D90F3",
"B@	c #5990F3",
"C@	c #548FF3",
"D@	c #518EF4",
"E@	c #3188F8",
"F@	c #2886F8",
"G@	c #2586FA",
"H@	c #2084FA",
"I@	c #09396E",
"J@	c #7CB2FF",
"K@	c #71B0FF",
"L@	c #5A90F3",
"M@	c #548EF3",
"N@	c #528DF4",
"O@	c #4E8DF4",
"P@	c #12223C",
"Q@	c #3871C9",
"R@	c #2B87F8",
"S@	c #2986F8",
"T@	c #2686F9",
"U@	c #2385F9",
"V@	c #1F84FA",
"W@	c #1C84FA",
"X@	c #07396E",
"Y@	c #4689F0",
"Z@	c #3A74CB",
"`@	c #438BF5",
" #	c #2C86F8",
".#	c #2986F9",
"+#	c #2585F9",
"@#	c #2385FA",
"##	c #1D84FA",
"$#	c #1A83FA",
"%#	c #07386E",
"&#	c #6AA6FF",
"*#	c #4C8DF5",
"=#	c #498CF5",
"-#	c #468BF5",
";#	c #438BF6",
">#	c #408BF5",
",#	c #3B89F6",
"'#	c #3489F7",
")#	c #2C87F9",
"!#	c #2085FA",
"~#	c #1E83FA",
"{#	c #1B83FA",
"]#	c #1883FB",
"^#	c #05386E",
"/#	c #68AFFF",
"(#	c #4C8CF5",
"_#	c #3D8AF7",
":#	c #2D86F8",
"<#	c #2084F9",
"[#	c #1E84FB",
"}#	c #1A84FB",
"|#	c #1583FB",
"1#	c #08386E",
"2#	c #04386F",
"3#	c #68A6FF",
"4#	c #5C9AFF",
"5#	c #4578CE",
"6#	c #233E6B",
"7#	c #223E6B",
"8#	c #203D6B",
"9#	c #1F3D6B",
"0#	c #1E3D6B",
"a#	c #0C3A6D",
"b#	c #08396E",
"c#	c #05284E",
"d#	c #03386F",
"e#	c #6DAFFF",
"f#	c #3C67B0",
"g#	c #13223B",
"h#	c #000509",
"i#	c #02386F",
"j#	c #5994FB",
"k#	c #3C67AF",
"l#	c #14223B",
"m#	c #000409",
"n#	c #013B78",
"o#	c #4F87E8",
"p#	c #3C6BB7",
"q#	c #213D6B",
"r#	c #1D3D6C",
"s#	c #163C6C",
"t#	c #103B6D",
"u#	c #0C3A6E",
"v#	c #06386E",
"w#	c #05386F",
"x#	c #003B78",
"y#	c #0052A5",
". + @ # $ % & * = - ; > , ' ) ! ~ { ] ^ / ( _ : < [ } | 1 2 ",
"3 4 5 6 7 8 9 0 a b c d e f g h i j k l m n o p q r s t u v ",
"w x y z A B 0 C D E F G f H h I j J K L M o p N r O t P Q R ",
"S 6 z T * U V W X Y Z ` !  ...+.@.#.$.%.&.*.[ =.| -.;.>.,.'.",
").!.~.{.].^./.(._.:.<.[.}.|.1.2.3.4.5.6.7.8.9.0.a.b.c.,.d.e.",
"f.~.B U g.h.i._.j.k.l.m.n.1.2.3.o.p.6.q.r.s.t.u.v.w.x.,.d.y.",
"z.B A.V /.i.B.:.k.l.}.n.C.D.3.E.p.F.q.G.H.I.J.K.L.M.'.d.d.N.",
"O.A.P.Q.R.S.:.T.U.V.W.1.X.Y.Z.p.F.q.r.s.`.u. +.+M.++e.d.d.@+",
"#+P.$+%+S.:.&+*+V.W.C.D.Y.Z.=+-+;+>+,+'+)+!+.+M.~+{+y.d.d.]+",
"^+C /+(+_+:+U.<+[+|.X.}+|+1+2+3+3+3+3+3+4+.+5+~+6+7+8+d.d.9+",
"- 0+E Y a+*+b+W.|.c+}+d+e+f+g+h+i+j+3+3+k+l+m+n+o+p+@+d.d.q+",
"r+E F Z s+t+[+u+c+v+3.w+5.x+7.8.y+z+A+3+k+B+C+D+E+F+G+d.d.H+",
"X d G ` [.I+n.J+K+d+o.5.x+L+M+N+z+A+O+P+Q+{+R+S+T+U+9+d.d.V+",
"W+e X+Y+Z+n.c+}+`+4.5.6.L+M+y+z+A+ @.@P+Q+D+E+F++@@@q+d.d.#@",
"$@%@H &@*@=@2.3.E.p.6.-@G.;@z+A+O+>@B+P+Q+S+,@'@)@!@~@d.d.{@",
"]@^@/@..C.D.3.4.p.F.q.r.(@z+A+_@.+B+:@<@[@,@}@|@1@2@V+d.d.3@",
"4@5@6@7@X.8@9@p.F.-@0@;@z+A+a@.+b@c@d@e@,@'@)@1@f@g@h@d.i@j@",
"k@l@m@n@}+d+p.F.q.r.o@z+A+p@q@r@c@n+e@,@s@)@t@u@v@w@#@i@i@x@",
"~ y@z@@.A@B@f+C@D@o@z+A+p@q@r@c@n+o+p+E@|@t@F@G@w@H@{@i@i@I@",
"J@z@J K@L@f+M@N@O@P@A+Q@.+l+:@{+o+p+E@|@R@S@T@U@V@W@j@i@i@X@",
"] J K ( f+M@7.8.9.Y@Z@`@l+m+{+D+p+E@|@ #.#+#@#H@##$#x@i@i@%#",
"@.K &#%.C@L+O@*#=#-#;#>#B+,#D+'#F+U+)#S@2@U@!#~#{#]#I@i@i@^#",
"#.&#M /#L+M+(#0.-#;#L._#C+D+E+F+}@:#S@T@@#<#[#}#]#|#1#i@i@2#",
"K@3#4#5#6#7#8#9#0#x.R '.y.8+N.G+]+q+H+V+#@{@a#x@I@b#c#i@i@d#",
"e#4#f#g#,.,.,.,.,.,.,.d.d.d.d.d.d.d.d.d.d.i@i@i@i@i@i@h#i@i#",
"j#k#l#,.,.,.,.,.,.,.d.d.d.d.d.d.d.d.d.d.i@i@i@i@i@i@i@i@m#n#",
"o#p#7#q#9#0#r#x.'.e.y.s#G+]+9+H+t#h@#@u#j@x@1#X@v#w#d#i#x#y#"};
