/* XPM */
static char * arhdI_xpm[] = {
"30 27 432 2",
"  	c None",
". 	c #423D00",
"+ 	c #3A3200",
"@ 	c #4D4200",
"# 	c #514400",
"$ 	c #554400",
"% 	c #584400",
"& 	c #5C4500",
"* 	c #5E4600",
"= 	c #624700",
"- 	c #664700",
"; 	c #694800",
"> 	c #6D4800",
", 	c #714800",
"' 	c #734B00",
") 	c #784A00",
"! 	c #7B4B00",
"~ 	c #7F4C00",
"{ 	c #824C00",
"] 	c #854D00",
"^ 	c #8A4D00",
"/ 	c #8D4F00",
"( 	c #905000",
"_ 	c #945000",
": 	c #985100",
"< 	c #9B5100",
"[ 	c #9E5200",
"} 	c #A35200",
"| 	c #A55300",
"1 	c #B66E02",
"2 	c #C07C15",
"3 	c #3C3400",
"4 	c #302500",
"5 	c #473900",
"6 	c #5C4D00",
"7 	c #614E00",
"8 	c #634E00",
"9 	c #664E00",
"0 	c #6A4F00",
"a 	c #6C4F00",
"b 	c #705200",
"c 	c #735200",
"d 	c #785200",
"e 	c #7A5300",
"f 	c #7E5400",
"g 	c #815400",
"h 	c #855500",
"i 	c #885500",
"j 	c #8C5600",
"k 	c #8F5700",
"l 	c #935900",
"m 	c #965900",
"n 	c #995900",
"o 	c #9D5A00",
"p 	c #A05B00",
"q 	c #A35B00",
"r 	c #A65B00",
"s 	c #AB5C00",
"t 	c #B46900",
"u 	c #CE9B4D",
"v 	c #CF9747",
"w 	c #4C4200",
"x 	c #473A00",
"y 	c #392800",
"z 	c #4F3B00",
"A 	c #624F00",
"B 	c #654F00",
"C 	c #6D5000",
"D 	c #715000",
"E 	c #745200",
"F 	c #785300",
"G 	c #7B5300",
"H 	c #815500",
"I 	c #885600",
"J 	c #8F5600",
"K 	c #935700",
"L 	c #965700",
"M 	c #985900",
"N 	c #A35A00",
"O 	c #A95C00",
"P 	c #CE9B4E",
"Q 	c #EFDDC3",
"R 	c #E4C393",
"S 	c #504400",
"T 	c #442D00",
"U 	c #614600",
"V 	c #654700",
"W 	c #684700",
"X 	c #6C4800",
"Y 	c #704800",
"Z 	c #734A00",
"` 	c #774B00",
" .	c #7D4C00",
"..	c #814C00",
"+.	c #844D00",
"@.	c #894D00",
"#.	c #8C4F00",
"$.	c #8F4F00",
"%.	c #935000",
"&.	c #975100",
"*.	c #9A5100",
"=.	c #A25200",
"-.	c #A85500",
";.	c #C5892F",
">.	c #EFDEC3",
",.	c #FDFBF7",
"'.	c #E5C393",
").	c #524400",
"!.	c #604E00",
"~.	c #624E00",
"{.	c #5D4500",
"].	c #7E6911",
"^.	c #816910",
"/.	c #846A10",
"(.	c #876A11",
"_.	c #896B10",
":.	c #8C6B10",
"<.	c #906B0F",
"[.	c #936C0F",
"}.	c #956C0E",
"|.	c #996E0E",
"1.	c #9B6E0E",
"2.	c #9E6E0D",
"3.	c #A16F0D",
"4.	c #A4700C",
"5.	c #A7700C",
"6.	c #AA700C",
"7.	c #AD710B",
"8.	c #B0720B",
"9.	c #B3720B",
"0.	c #B5730A",
"a.	c #B8740A",
"b.	c #BB740A",
"c.	c #E3C294",
"d.	c #FEFBF7",
"e.	c #E6C393",
"f.	c #564400",
"g.	c #806911",
"h.	c #846911",
"i.	c #866A10",
"j.	c #8D6B10",
"k.	c #8F6C0F",
"l.	c #926C0F",
"m.	c #956D0E",
"n.	c #986D0E",
"o.	c #A46F0D",
"p.	c #A6700C",
"q.	c #AC710B",
"r.	c #AF710B",
"s.	c #B2720B",
"t.	c #B5720A",
"u.	c #B7740A",
"v.	c #BA7409",
"w.	c #BE750A",
"x.	c #E3C393",
"y.	c #E7C393",
"z.	c #584500",
"A.	c #684F00",
"B.	c #896A10",
"C.	c #9A6E0E",
"D.	c #9D6E0D",
"E.	c #A46F0C",
"F.	c #A9700C",
"G.	c #AF720B",
"H.	c #B2730B",
"I.	c #B5720B",
"J.	c #B7730A",
"K.	c #BA730A",
"L.	c #BE740A",
"M.	c #C07509",
"N.	c #E9C392",
"O.	c #5C4600",
"P.	c #6B5000",
"Q.	c #674700",
"R.	c #866A11",
"S.	c #896A0F",
"T.	c #8E6B0F",
"U.	c #916C0F",
"V.	c #946C0F",
"W.	c #976D0E",
"X.	c #9D6E0E",
"Y.	c #A06E0D",
"Z.	c #A36F0D",
"`.	c #B4720A",
" +	c #BA740A",
".+	c #BD740A",
"++	c #C37508",
"@+	c #EAC392",
"#+	c #604600",
"$+	c #6F5000",
"%+	c #694700",
"&+	c #8E6C10",
"*+	c #916B0F",
"=+	c #805609",
"-+	c #714B08",
";+	c #724B07",
">+	c #754B08",
",+	c #764C06",
"'+	c #784C07",
")+	c #AD6D09",
"!+	c #B9730A",
"~+	c #C27609",
"{+	c #C57609",
"]+	c #EBC492",
"^+	c #634600",
"/+	c #725200",
"(+	c #6E4800",
"_+	c #8B6B10",
":+	c #8E6B10",
"<+	c #946D0F",
"[+	c #966C0E",
"}+	c #9F6E0D",
"|+	c #A2700C",
"1+	c #A5700D",
"2+	c #342303",
"3+	c #000000",
"4+	c #231601",
"5+	c #BF7409",
"6+	c #C67608",
"7+	c #C87708",
"8+	c #E8C393",
"9+	c #ECC492",
"0+	c #715200",
"a+	c #8D6B0F",
"b+	c #946D0E",
"c+	c #9C6E0D",
"d+	c #A26F0D",
"e+	c #A56F0D",
"f+	c #A8700C",
"g+	c #7D5208",
"h+	c #694406",
"i+	c #6A4506",
"j+	c #362203",
"k+	c #170E01",
"l+	c #BF7509",
"m+	c #C27509",
"n+	c #C57608",
"o+	c #C87608",
"p+	c #CB7708",
"q+	c #EDC492",
"r+	c #684800",
"s+	c #906C0F",
"t+	c #936C0E",
"u+	c #996D0E",
"v+	c #9F6F0D",
"w+	c #A5700C",
"x+	c #AA710C",
"y+	c #7A4E07",
"z+	c #020100",
"A+	c #050300",
"B+	c #C17509",
"C+	c #C47608",
"D+	c #C77608",
"E+	c #CA7707",
"F+	c #CD7707",
"G+	c #EAC492",
"H+	c #EEC492",
"I+	c #966D0F",
"J+	c #9B6E0D",
"K+	c #9E6F0D",
"L+	c #AD710C",
"M+	c #B0710B",
"N+	c #7A4D07",
"O+	c #9A5F08",
"P+	c #010000",
"Q+	c #180E01",
"R+	c #C77708",
"S+	c #CA7708",
"T+	c #CD7807",
"U+	c #D07707",
"V+	c #EFC592",
"W+	c #704A00",
"X+	c #7D5400",
"Y+	c #794B00",
"Z+	c #966D0E",
"`+	c #A16F0C",
" @	c #9A5F07",
".@	c #BE7509",
"+@	c #CF7807",
"@@	c #D27806",
"#@	c #F1C592",
"$@	c #724A00",
"%@	c #7D5300",
"&@	c #7D4B00",
"*@	c #986E0E",
"=@	c #9B6D0E",
"-@	c #AC710C",
";@	c #794D07",
">@	c #9A5E07",
",@	c #BD7509",
"'@	c #CC7707",
")@	c #CF7708",
"!@	c #D27807",
"~@	c #D67806",
"{@	c #EEC592",
"]@	c #F2C592",
"^@	c #764B00",
"/@	c #805400",
"(@	c #835500",
"_@	c #794D06",
":@	c #995E08",
"<@	c #C37509",
"[@	c #C37407",
"}@	c #C77507",
"|@	c #CF7707",
"1@	c #D17807",
"2@	c #D57907",
"3@	c #D87A06",
"4@	c #F3C691",
"5@	c #784B00",
"6@	c #835400",
"7@	c #865500",
"8@	c #844C00",
"9@	c #A06F0D",
"0@	c #A3700D",
"a@	c #AF720C",
"b@	c #C07508",
"c@	c #C37609",
"d@	c #C67508",
"e@	c #C97608",
"f@	c #D87A07",
"g@	c #DA7906",
"h@	c #F0C592",
"i@	c #FFFBF7",
"j@	c #F4C691",
"k@	c #7C4C00",
"l@	c #875500",
"m@	c #895500",
"n@	c #874D00",
"o@	c #784D07",
"p@	c #985E08",
"q@	c #BD7409",
"r@	c #C07409",
"s@	c #CE7807",
"t@	c #D47907",
"u@	c #D87907",
"v@	c #DA7A05",
"w@	c #DD7A05",
"x@	c #F5C691",
"y@	c #895600",
"z@	c #8D5600",
"A@	c #A26F0C",
"B@	c #A66F0C",
"C@	c #AB700C",
"D@	c #AE710B",
"E@	c #CE7707",
"F@	c #D77907",
"G@	c #DA7905",
"H@	c #DF7B05",
"I@	c #F6C691",
"J@	c #834D00",
"K@	c #8E4F00",
"L@	c #A56F0C",
"M@	c #AB710C",
"N@	c #AD720B",
"O@	c #B1720B",
"P@	c #2C1C02",
"Q@	c #985F07",
"R@	c #D47807",
"S@	c #D67907",
"T@	c #D97906",
"U@	c #DC7A06",
"V@	c #E07B05",
"W@	c #E37B05",
"X@	c #F8C691",
"Y@	c #B37009",
"Z@	c #995F08",
"`@	c #BC740A",
" #	c #D37907",
".#	c #D67906",
"+#	c #DA7A06",
"@#	c #DC7A05",
"##	c #E27B05",
"$#	c #E57C05",
"%#	c #F8C791",
"&#	c #955900",
"*#	c #B3720A",
"=#	c #B6730A",
"-#	c #B9740A",
";#	c #BC7409",
">#	c #BF740A",
",#	c #C47609",
"'#	c #CB7608",
")#	c #D37806",
"!#	c #DF7A05",
"~#	c #E17C05",
"{#	c #E47C05",
"]#	c #E77C04",
"^#	c #FAC791",
"/#	c #975000",
"(#	c #B3730A",
"_#	c #C27508",
":#	c #D27907",
"<#	c #DF7B06",
"[#	c #E17B04",
"}#	c #E57B04",
"|#	c #EA7C04",
"1#	c #F7C791",
"2#	c #FBC790",
"3#	c #975900",
"4#	c #A36500",
"5#	c #BA8731",
"6#	c #DCC194",
"7#	c #DDC194",
"8#	c #DFC294",
"9#	c #E0C294",
"0#	c #E1C294",
"a#	c #F3C592",
"b#	c #F7C691",
"c#	c #FAD7B1",
"d#	c #FCC790",
"e#	c #925000",
"f#	c #C3984F",
"g#	c #ECDDC4",
"h#	c #FFFAF6",
"i#	c #FDC790",
"j#	c #A66B04",
"k#	c #C39850",
"l#	c #EBDDC4",
"m#	c #FFFBF6",
"n#	c #FEC487",
"o#	c #B07817",
"p#	c #C39448",
"q#	c #DEC294",
"r#	c #E2C293",
"s#	c #E9C393",
"t#	c #EFC492",
"u#	c #F3C591",
"v#	c #F9C791",
"w#	c #FAC790",
"x#	c #FFC487",
"y#	c #FFAD5A",
". + @ # $ % & * = - ; > , ' ) ! ~ { ] ^ / ( _ : < [ } | 1 2 ",
"3 4 5 6 7 8 9 0 a b c d e f g h i j k l m n o p q r s t u v ",
"w x y z A B 0 C D E F G f H h I j J K L M o p N r O t P Q R ",
"S 6 z T * U V W X Y Z ` !  ...+.@.#.$.%.&.*.[ =.| -.;.>.,.'.",
").!.~.{.].^./.(._.:.<.[.}.|.1.2.3.4.5.6.7.8.9.0.a.b.c.,.d.e.",
"f.~.B U g.h.i._.j.k.l.m.n.1.2.3.o.p.6.q.r.s.t.u.v.w.x.,.d.y.",
"z.B A.V /.i.B.:.k.l.}.n.C.D.3.E.p.F.q.G.H.I.J.K.L.M.'.d.d.N.",
"O.A.P.Q.R.S.:.T.U.V.W.1.X.Y.Z.p.F.q.r.s.`.u. +.+M.++e.d.d.@+",
"#+P.$+%+S.:.&+*+V.W.C.D.Y.Z.=+-+;+>+,+'+)+!+.+M.~+{+y.d.d.]+",
"^+C /+(+_+:+U.<+[+|.X.}+|+1+2+3+3+3+3+3+4+.+5+~+6+7+8+d.d.9+",
"- 0+E Y a+*+b+W.|.c+}+d+e+f+g+h+i+j+3+3+k+l+m+n+o+p+@+d.d.q+",
"r+E F Z s+t+[+u+c+v+3.w+5.x+7.8.y+z+A+3+k+B+C+D+E+F+G+d.d.H+",
"X d G ` [.I+n.J+K+d+o.5.x+L+M+N+z+A+O+P+Q+{+R+S+T+U+9+d.d.V+",
"W+e X+Y+Z+n.c+}+`+4.5.6.L+M+y+z+A+ @.@P+Q+D+E+F++@@@q+d.d.#@",
"$@%@H &@*@=@2.3.E.p.6.-@G.;@z+A+>@,@B+P+Q+S+'@)@!@~@{@d.d.]@",
"^@/@(@..C.D.3.4.p.F.q.r._@z+A+:@.+B+<@[@}@'@|@1@2@3@V+d.d.4@",
"5@6@7@8@X.9@0@p.F.-@a@;@z+A+:@.+b@c@d@e@'@)@!@2@f@g@h@d.i@j@",
"k@l@m@n@}+d+p.F.q.r.o@z+A+p@q@r@c@n+e@'@s@!@t@u@v@w@#@i@i@x@",
"~ y@z@@.A@B@f+C@D@o@z+A+p@q@r@c@n+o+p+E@1@t@F@G@w@H@]@i@i@I@",
"J@z@J K@L@f+M@N@O@P@A+Q@.+l+<@{+o+p+E@1@R@S@T@U@V@W@j@i@i@X@",
"] J K ( f+M@7.8.9.Y@Z@`@l+m+{+D+p+E@1@ #.#+#@#H@##$#x@i@i@%#",
"@.K &#%.C@L+O@*#=#-#;#>#B+,#D+'#F+U+)#S@3@U@!#~#{#]#I@i@i@^#",
"#.&#M /#L+M+(#0.-#;#L._#C+D+E+F+|@:#S@T@@#<#[#}#]#|#1#i@i@2#",
"K@3#4#5#6#7#8#9#0#x.R '.y.8+N.G+]+q+H+V+#@]@a#x@I@b#c#i@i@d#",
"e#4#f#g#,.,.,.,.,.,.,.d.d.d.d.d.d.d.d.d.d.i@i@i@i@i@i@h#i@i#",
"j#k#l#,.,.,.,.,.,.,.d.d.d.d.d.d.d.d.d.d.i@i@i@i@i@i@i@i@m#n#",
"o#p#7#q#9#0#r#x.'.e.y.s#G+]+9+H+t#h@#@u#j@x@1#X@v#w#d#i#x#y#"};
