/* XPM */
static char * arhgI_xpm[] = {
"30 27 434 2",
"  	c None",
". 	c #423D00",
"+ 	c #3C3200",
"@ 	c #4C4200",
"# 	c #514400",
"$ 	c #554400",
"% 	c #584500",
"& 	c #5B4500",
"* 	c #5E4600",
"= 	c #634600",
"- 	c #674700",
"; 	c #694800",
"> 	c #6D4800",
", 	c #704800",
"' 	c #744A00",
") 	c #774B00",
"! 	c #7C4C00",
"~ 	c #7F4C00",
"{ 	c #824C00",
"] 	c #854D00",
"^ 	c #8A4D00",
"/ 	c #8D4F00",
"( 	c #904F00",
"_ 	c #945100",
": 	c #985100",
"< 	c #9B5100",
"[ 	c #9F5200",
"} 	c #A25200",
"| 	c #A55300",
"1 	c #B66F02",
"2 	c #BF7B15",
"3 	c #3A3400",
"4 	c #322500",
"5 	c #483A00",
"6 	c #5C4D00",
"7 	c #614D00",
"8 	c #644E00",
"9 	c #664E00",
"0 	c #6A4F00",
"a 	c #6D5000",
"b 	c #715000",
"c 	c #745300",
"d 	c #785200",
"e 	c #7A5300",
"f 	c #7F5400",
"g 	c #815400",
"h 	c #855500",
"i 	c #885500",
"j 	c #8C5600",
"k 	c #8F5600",
"l 	c #915700",
"m 	c #955900",
"n 	c #995A00",
"o 	c #9D5A00",
"p 	c #A05B00",
"q 	c #A45B00",
"r 	c #A65C00",
"s 	c #AA5C00",
"t 	c #B46900",
"u 	c #CE9B4D",
"v 	c #CF9747",
"w 	c #392800",
"x 	c #4F3B00",
"y 	c #634F00",
"z 	c #695000",
"A 	c #6C5000",
"B 	c #715200",
"C 	c #745200",
"D 	c #775200",
"E 	c #7E5300",
"F 	c #815500",
"G 	c #8C5500",
"H 	c #935700",
"I 	c #965700",
"J 	c #985900",
"K 	c #9C5A00",
"L 	c #9F5A00",
"M 	c #A35B00",
"N 	c #A65B00",
"O 	c #AA5B00",
"P 	c #B26900",
"Q 	c #CE9B4E",
"R 	c #F0DEC3",
"S 	c #E4C393",
"T 	c #4F4200",
"U 	c #462D00",
"V 	c #5D4600",
"W 	c #624600",
"X 	c #664700",
"Y 	c #6C4800",
"Z 	c #6E4800",
"` 	c #734B00",
" .	c #794C00",
"..	c #7E4C00",
"+.	c #884D00",
"@.	c #8F4F00",
"#.	c #935100",
"$.	c #975100",
"%.	c #9A5100",
"&.	c #9E5200",
"*.	c #A05200",
"=.	c #A45300",
"-.	c #A85300",
";.	c #C58930",
">.	c #F0DDC3",
",.	c #FDFBF7",
"'.	c #E5C393",
").	c #524400",
"!.	c #604D00",
"~.	c #624E00",
"{.	c #7E6911",
"].	c #816911",
"^.	c #846A10",
"/.	c #876A10",
"(.	c #896B10",
"_.	c #8D6B0F",
":.	c #906C0F",
"<.	c #926C0E",
"[.	c #956C0E",
"}.	c #986D0E",
"|.	c #9B6D0E",
"1.	c #9E6F0D",
"2.	c #A16F0D",
"3.	c #A3700D",
"4.	c #A6700C",
"5.	c #AA700B",
"6.	c #AD710C",
"7.	c #B0720B",
"8.	c #B2720B",
"9.	c #B5730A",
"0.	c #B8730A",
"a.	c #BB740A",
"b.	c #E3C394",
"c.	c #FEFBF7",
"d.	c #E7C393",
"e.	c #564400",
"f.	c #654E00",
"g.	c #614600",
"h.	c #806811",
"i.	c #836A11",
"j.	c #876A11",
"k.	c #8A6A10",
"l.	c #8C6B10",
"m.	c #8F6C10",
"n.	c #926C0F",
"o.	c #956D0E",
"p.	c #9B6E0E",
"q.	c #9D6E0D",
"r.	c #A16E0D",
"s.	c #A36F0D",
"t.	c #AA710C",
"u.	c #AF720B",
"v.	c #B5730B",
"w.	c #B7730A",
"x.	c #BB7409",
"y.	c #BD750A",
"z.	c #E3C393",
"A.	c #E8C393",
"B.	c #5A4500",
"C.	c #694F00",
"D.	c #654600",
"E.	c #866A11",
"F.	c #896A10",
"G.	c #8C6B0F",
"H.	c #8F6B0F",
"I.	c #946C0F",
"J.	c #9A6D0E",
"K.	c #A06F0D",
"L.	c #A46F0C",
"M.	c #A9700C",
"N.	c #AC700B",
"O.	c #AF710B",
"P.	c #B2720A",
"Q.	c #BD740A",
"R.	c #C17509",
"S.	c #E9C392",
"T.	c #5C4500",
"U.	c #684F00",
"V.	c #6B4F00",
"W.	c #866910",
"X.	c #8B6A0F",
"Y.	c #8E6C10",
"Z.	c #926B0E",
"`.	c #976D0E",
" +	c #9A6E0E",
".+	c #9E6E0E",
"++	c #A5700C",
"@+	c #AC710C",
"#+	c #B1720B",
"$+	c #B4730B",
"%+	c #BA740A",
"&+	c #BD7409",
"*+	c #C07509",
"=+	c #C37609",
"-+	c #E6C393",
";+	c #EAC492",
">+	c #604600",
",+	c #6B5000",
"'+	c #6B4800",
")+	c #8B6B10",
"!+	c #8E6B0F",
"~+	c #916C0F",
"{+	c #78560B",
"]+	c #674909",
"^+	c #694908",
"/+	c #6A4A08",
"(+	c #6C4A08",
"_+	c #6E4B08",
":+	c #A16A0B",
"<+	c #AB710C",
"[+	c #AE710B",
"}+	c #B1720A",
"|+	c #B4730A",
"1+	c #BA730A",
"2+	c #BC740A",
"3+	c #C37509",
"4+	c #C57608",
"5+	c #EBC492",
"6+	c #936C0E",
"7+	c #946B0E",
"8+	c #030200",
"9+	c #000000",
"0+	c #916009",
"a+	c #AE710C",
"b+	c #B97309",
"c+	c #C27508",
"d+	c #C87608",
"e+	c #E8C392",
"f+	c #ECC492",
"g+	c #946D0E",
"h+	c #966D0F",
"i+	c #956A0D",
"j+	c #543906",
"k+	c #664407",
"l+	c #674406",
"m+	c #A46A0A",
"n+	c #B0720A",
"o+	c #B3730B",
"p+	c #B9730A",
"q+	c #BF7509",
"r+	c #C27509",
"s+	c #C57609",
"t+	c #C87708",
"u+	c #CA7708",
"v+	c #EEC492",
"w+	c #785300",
"x+	c #936C0F",
"y+	c #966C0E",
"z+	c #996D0E",
"A+	c #986B0C",
"B+	c #050300",
"C+	c #0B0700",
"D+	c #9A6609",
"E+	c #B3720B",
"F+	c #B6730B",
"G+	c #BC7409",
"H+	c #BE7409",
"I+	c #C47508",
"J+	c #C77608",
"K+	c #CB7708",
"L+	c #CE7708",
"M+	c #EEC592",
"N+	c #966D0E",
"O+	c #9A6C0C",
"P+	c #191102",
"Q+	c #5D3E06",
"R+	c #0C0700",
"S+	c #9F6709",
"T+	c #B6730A",
"U+	c #B8740A",
"V+	c #BE7509",
"W+	c #C47608",
"X+	c #CD7807",
"Y+	c #D07707",
"Z+	c #F0C592",
"`+	c #7B4B00",
" @	c #9B6E0D",
".@	c #9E6F0E",
"+@	c #9D6C0B",
"@@	c #1A1102",
"#@	c #613F06",
"$@	c #0C0800",
"%@	c #A46809",
"&@	c #BE740A",
"*@	c #C47509",
"=@	c #C97607",
"-@	c #CC7807",
";@	c #CF7807",
">@	c #D27806",
",@	c #EDC492",
"'@	c #F1C592",
")@	c #734A00",
"!@	c #7D4B00",
"~@	c #9F6D0B",
"{@	c #1A1101",
"]@	c #AD710B",
"^@	c #643F06",
"/@	c #AA6909",
"(@	c #C97608",
"_@	c #D37806",
":@	c #D57907",
"<@	c #F2C592",
"[@	c #764A00",
"}@	c #805400",
"|@	c #835400",
"1@	c #814C00",
"2@	c #9D6E0E",
"3@	c #A46F0D",
"4@	c #A7700C",
"5@	c #A76F0B",
"6@	c #A96F0A",
"7@	c #674005",
"8@	c #0E0800",
"9@	c #AF6A08",
"0@	c #CF7707",
"a@	c #D57906",
"b@	c #D87906",
"c@	c #EFC592",
"d@	c #F3C592",
"e@	c #794B00",
"f@	c #875500",
"g@	c #834D00",
"h@	c #AF710C",
"i@	c #B5720A",
"j@	c #6A4105",
"k@	c #B46B07",
"l@	c #CB7707",
"m@	c #D17906",
"n@	c #DA7A06",
"o@	c #FFFBF7",
"p@	c #F4C691",
"q@	c #7C4B00",
"r@	c #895600",
"s@	c #874D00",
"t@	c #A06E0D",
"u@	c #A5700D",
"v@	c #AE720B",
"w@	c #B4720A",
"x@	c #B8740B",
"y@	c #6C4204",
"z@	c #BA6C06",
"A@	c #CE7808",
"B@	c #D17807",
"C@	c #D47806",
"D@	c #D77907",
"E@	c #DD7B05",
"F@	c #F5C691",
"G@	c #8A4F00",
"H@	c #A26F0C",
"I@	c #A8700C",
"J@	c #C37508",
"K@	c #C57508",
"L@	c #704204",
"M@	c #0F0800",
"N@	c #BE6D06",
"O@	c #D47906",
"P@	c #D77906",
"Q@	c #DA7906",
"R@	c #DC7A06",
"S@	c #E07B05",
"T@	c #F7C691",
"U@	c #8F5700",
"V@	c #AB700C",
"W@	c #AD720B",
"X@	c #734303",
"Y@	c #764203",
"Z@	c #DA7A05",
"`@	c #E27C05",
" #	c #F4C692",
".#	c #F8C691",
"+#	c #8F5000",
"@#	c #CA7707",
"##	c #CE7707",
"$#	c #D07807",
"%#	c #945404",
"&#	c #D67906",
"*#	c #D97906",
"=#	c #DF7B05",
"-#	c #E27B05",
";#	c #E57C04",
">#	c #F8C791",
",#	c #894D00",
"'#	c #965900",
")#	c #945000",
"!#	c #BE750A",
"~#	c #CB7608",
"{#	c #D37807",
"]#	c #D97A06",
"^#	c #DC7A05",
"/#	c #DF7A05",
"(#	c #E57B04",
"_#	c #E77C04",
":#	c #F6C691",
"<#	c #FAC791",
"[#	c #8C4F00",
"}#	c #D27807",
"|#	c #DB7A06",
"1#	c #DE7B06",
"2#	c #E17C05",
"3#	c #E47C04",
"4#	c #E77D04",
"5#	c #EA7D03",
"6#	c #FBC791",
"7#	c #A36500",
"8#	c #BA8731",
"9#	c #DCC194",
"0#	c #DEC194",
"a#	c #DFC194",
"b#	c #E0C294",
"c#	c #E2C293",
"d#	c #E9C393",
"e#	c #EAC392",
"f#	c #F2C591",
"g#	c #FBD7B1",
"h#	c #FCC790",
"i#	c #935000",
"j#	c #A26600",
"k#	c #C39850",
"l#	c #ECDDC4",
"m#	c #FFFAF6",
"n#	c #FDC790",
"o#	c #A66C04",
"p#	c #FFFBF6",
"q#	c #FFC487",
"r#	c #B07817",
"s#	c #C39548",
"t#	c #DDC194",
"u#	c #DFC294",
"v#	c #E1C294",
"w#	c #EFC492",
"x#	c #F3C692",
"y#	c #F9C791",
"z#	c #FEC387",
"A#	c #FFAD5A",
". + @ # $ % & * = - ; > , ' ) ! ~ { ] ^ / ( _ : < [ } | 1 2 ",
"3 4 5 6 7 8 9 0 a b c d e f g h i j k l m n o p q r s t u v ",
"@ 5 w x y 9 z A B C D e E F h i G k H I J K L M N O P Q R S ",
"T 6 x U V W X ; Y Z ` )  ...{ ] +./ @.#.$.%.&.*.=.-.;.>.,.'.",
").!.~.* {.].^./.(._.:.<.[.}.|.1.2.3.4.5.6.7.8.9.0.a.b.,.c.d.",
"e.~.f.g.h.i.j.k.l.m.n.o.}.p.q.r.s.4.t.6.u.8.v.w.x.y.z.c.c.A.",
"B.8 C.D.i.E.F.G.H.<.I.}.J.q.K.L.4.M.N.O.P.9.w.a.Q.R.'.c.c.S.",
"T.U.V.- W.F.X.Y.Z.I.`. +.+K.s.++M.@+u.#+$+w.%+&+*+=+-+c.c.;+",
">+,+a '+F.)+!+~+I.{+]+^+/+(+_+:+<+[+}+|+w.1+2+*+3+4+d.c.c.5+",
"= a B > )+!+~+6+7+8+9+9+9+9+9+0+a+}+$+w.b+y.*+c+4+d+e+c.c.f+",
"X b C , !+:.g+h+i+9+9+9+j+k+l+m+n+o+w.p+2+q+r+s+t+u+;+c.c.v+",
"; C w+' :.x+y+z+A+9+B+9+C+D+6.7.E+F+p+G+H+R.I+J+K+L+;+c.c.M+",
"Y d e ) n.N+z+p.O+9+P+Q+9+R+S+E+T+U+2+V+R.W+J+u+X+Y+f+c.c.Z+",
", e E `+o.}. @.@+@9+@@M.#@9+$@%@0.G+&@R.*@J+=@-@;@>@,@c.c.'@",
")@E g !@}.p..+2.~@9+{@]@7.^@9+$@/@H+*+3+J+(@-@;@_@:@M+c.c.<@",
"[@}@|@1@|.2@r.3@4@5@6@O.P.9.7@9+8@9@W+J+=@-@0@>@a@b@c@c.c.d@",
"e@|@f@g@q.K.3.4.M.N.h@8.i@U+%+j@9+8@k@(@l@0@m@:@b@n@Z+c.o@p@",
"q@f@r@s@t@s.u@M.<+v@#+w@x@1+Q.*+y@9+8@z@A@B@C@D@n@E@'@o@o@F@",
"~ r@j G@H@4.I@<+a+#+|+w.1+Q.*+J@K@L@9+M@N@O@P@Q@R@S@<@o@o@T@",
"g@j U@/ ++I@V@W@7.$+w.1+G+q+r+4+d+l@X@9+Y@P@Z@R@S@`@ #o@o@.#",
"] U@H +#I@<+[+7.E+T+b+G+q+r+K@J+@###$#%#&#*#R@=#-#;#F@o@o@>#",
",#l '#)#<+]@7.o+T+0.G+!#R.I+J+~#X+$#{#&#]#^#/#-#(#_#:#o@o@<#",
"[#I J $.6.7.E+T+0.a.&@R.W+J+u+X+$#}#a@b@|#1#2#3#4#5#T@o@o@6#",
"@.J 7#8#9#0#a#b#c#z.S '.-+A.d#e#f+,@M+c@'@f#d@F@F@T@g#o@o@h#",
"i#j#k#l#,.,.,.,.,.,.c.c.c.c.c.c.c.c.c.c.c.o@o@o@o@o@o@m#o@n#",
"o#k#l#,.,.,.,.,.,.c.c.c.c.c.c.c.c.c.c.c.o@o@o@o@o@o@o@o@p#q#",
"r#s#t#u#b#v#c#z.'.-+d.A.;+5+,@v+w#Z+'@x# #F@:#>#y#6#h#n#z#A#"};
